<svg width="30" height="25" viewBox="0 0 30 25" fill="none" xmlns="http://www.w3.org/2000/svg">
<path d="M14.9941 20.2074C15.1827 20.2074 15.3536 20.1776 15.5069 20.118C15.6601 20.0584 15.8075 19.969 15.9489 19.8498C16.7033 19.1583 17.4224 18.4788 18.1061 17.8112C18.7898 17.1435 19.3851 16.4878 19.8919 15.8441C20.3988 15.2003 20.8055 14.5744 21.112 13.9664C21.4185 13.3584 21.5717 12.7682 21.5717 12.196C21.5717 11.1469 21.2181 10.2766 20.5108 9.58512C19.8035 8.89366 18.9548 8.54793 17.9646 8.54793C17.3517 8.54793 16.7917 8.6731 16.2849 8.92346C15.778 9.17382 15.3477 9.50167 14.9941 9.90701C14.6405 9.50167 14.1984 9.17382 13.668 8.92346C13.1375 8.6731 12.5894 8.54793 12.0236 8.54793C11.0334 8.54793 10.1847 8.89366 9.47741 9.58512C8.77014 10.2766 8.4165 11.1469 8.4165 12.196C8.4165 12.7682 8.56975 13.3584 8.87623 13.9664C9.18271 14.5744 9.58939 15.2003 10.0963 15.8441C10.6031 16.4878 11.1984 17.1435 11.8821 17.8112C12.5658 18.4788 13.2849 19.1583 14.0393 19.8498C14.1807 19.969 14.3281 20.0584 14.4813 20.118C14.6346 20.1776 14.8055 20.2074 14.9941 20.2074ZM6.50688 25C5.72888 25 5.06287 24.7198 4.50884 24.1595C3.95481 23.5992 3.6778 22.9256 3.6778 22.1388V11.588L2.26326 12.6967C1.9332 12.9351 1.57957 13.0305 1.20236 12.9828C0.825147 12.9351 0.518664 12.7444 0.282908 12.4106C0.0471513 12.0768 -0.0412574 11.7191 0.0176817 11.3376C0.0766208 10.9561 0.259332 10.6462 0.565815 10.4077L13.2613 0.572246C13.5206 0.381497 13.7976 0.238436 14.0923 0.143062C14.387 0.0476872 14.6876 0 14.9941 0C15.3006 0 15.6012 0.0476872 15.8959 0.143062C16.1906 0.238436 16.4676 0.381497 16.7269 0.572246L29.4578 10.4077C29.7642 10.6462 29.9411 10.9561 29.9882 11.3376C30.0354 11.7191 29.9411 12.0768 29.7053 12.4106C29.4695 12.7206 29.1631 12.8994 28.7859 12.9471C28.4086 12.9948 28.0668 12.8994 27.7603 12.6609L26.3104 11.588V22.1388C26.3104 22.9256 26.0334 23.5992 25.4794 24.1595C24.9253 24.7198 24.2593 25 23.4813 25H6.50688Z" fill="#FF6565"/>
</svg>
