<svg width="25" height="22" viewBox="0 0 25 22" fill="none" xmlns="http://www.w3.org/2000/svg">
<path d="M23.75 10.375C23.3958 10.375 23.099 10.2552 22.8594 10.0156C22.6198 9.77604 22.5 9.47917 22.5 9.125C22.5 8.77083 22.6198 8.47396 22.8594 8.23438C23.099 7.99479 23.3958 7.875 23.75 7.875C24.1042 7.875 24.401 7.99479 24.6406 8.23438C24.8802 8.47396 25 8.77083 25 9.125C25 9.47917 24.8802 9.77604 24.6406 10.0156C24.401 10.2552 24.1042 10.375 23.75 10.375ZM23.75 6.625C23.3958 6.625 23.099 6.50521 22.8594 6.26562C22.6198 6.02604 22.5 5.72917 22.5 5.375V1.625C22.5 1.27083 22.6198 0.973958 22.8594 0.734375C23.099 0.494792 23.3958 0.375 23.75 0.375C24.1042 0.375 24.401 0.494792 24.6406 0.734375C24.8802 0.973958 25 1.27083 25 1.625V5.375C25 5.72917 24.8802 6.02604 24.6406 6.26562C24.401 6.50521 24.1042 6.625 23.75 6.625ZM10 11.625C8.625 11.625 7.44792 11.1354 6.46875 10.1562C5.48958 9.17708 5 8 5 6.625C5 5.25 5.48958 4.07292 6.46875 3.09375C7.44792 2.11458 8.625 1.625 10 1.625C11.375 1.625 12.5521 2.11458 13.5312 3.09375C14.5104 4.07292 15 5.25 15 6.625C15 8 14.5104 9.17708 13.5312 10.1562C12.5521 11.1354 11.375 11.625 10 11.625ZM0 19.125V18.125C0 17.4167 0.182292 16.7656 0.546875 16.1719C0.911458 15.5781 1.39583 15.125 2 14.8125C3.29167 14.1667 4.60417 13.6823 5.9375 13.3594C7.27083 13.0365 8.625 12.875 10 12.875C11.375 12.875 12.7292 13.0365 14.0625 13.3594C15.3958 13.6823 16.7083 14.1667 18 14.8125C18.6042 15.125 19.0885 15.5781 19.4531 16.1719C19.8177 16.7656 20 17.4167 20 18.125V19.125C20 19.8125 19.7552 20.401 19.2656 20.8906C18.776 21.3802 18.1875 21.625 17.5 21.625H2.5C1.8125 21.625 1.22396 21.3802 0.734375 20.8906C0.244792 20.401 0 19.8125 0 19.125Z" fill="#A60000"/>
</svg>
