<svg width="25" height="25" viewBox="0 0 25 25" fill="none" xmlns="http://www.w3.org/2000/svg">
<path d="M5.93548 22.0674H10.2366C10.2366 23.2368 9.26881 24.1935 8.08602 24.1935C6.90322 24.1935 5.93548 23.2368 5.93548 22.0674ZM3.78494 21.0044H12.3871V18.8783H3.78494V21.0044ZM16.1505 10.9054C16.1505 14.9663 13.2903 17.1349 12.0968 17.8152H4.07526C2.88171 17.1349 0.0214996 14.9663 0.0214996 10.9054C0.0214996 6.5044 3.6344 2.93255 8.08602 2.93255C12.5376 2.93255 16.1505 6.5044 16.1505 10.9054ZM21.3871 8.64113L19.914 9.31085L21.3871 9.98057L22.0645 11.4369L22.7419 9.98057L24.215 9.31085L22.7419 8.64113L22.0645 7.18475L21.3871 8.64113ZM18.8387 7.18475L19.8495 4.99487L22.0645 3.9956L19.8495 2.99633L18.8387 0.80645L17.828 2.99633L15.6129 3.9956L17.828 4.99487L18.8387 7.18475Z" fill="#6A6A6A"/>
</svg>
